<?xml version="1.0" encoding="UTF-8"?><svg id="Layer_2" xmlns="http://www.w3.org/2000/svg" viewBox="0 0 967 967"><defs><style>.cls-1{fill:#f97316;}.cls-2{fill:#fafafa;}.cls-3{fill:#18181b;}</style></defs><g id="Layer_1-2"><g><circle class="cls-3" cx="483.5" cy="483.5" r="483.5"/><g><path class="cls-2" d="M496.58,270.45c123.13,0,182.94,58.45,182.94,158.85v204.22l-73.61,85.03v-204.22c0-57.09-32.99-88.72-109.33-88.72h-76.44c-6.18,0-8.96,3.42-8.96,10.32v133.81l-115.4,63.78V326.81c0-42.62,14.47-56.36,50.91-56.36h149.89Z"/><path class="cls-1" d="M276.89,689.02l138.32-89.15,9.55-6.16c1.75,.81,81.11,35.31,86.09,37.51l-28.15,7,95.46-93.84c-5.61,11.41-64.22,130.67-67.76,137.89-12.49-6.92-78.25-43.32-92.18-51.03l19.4-1.86-122.97,109.35-37.76-49.7h0Z"/></g></g></g></svg>