<svg id="Layer_1" data-name="Layer 1" xmlns="http://www.w3.org/2000/svg" viewBox="0 0 1280 410.41"><path d="M1164.52,290.33h-34c0-9.21-.21-18.19.09-27.14.13-4.15-1.06-6.06-5.24-7.39-28.23-9-44.49-36-39.74-65.49,4.55-28.2,28.94-48.83,58-48.8,25.61,0,45,11.18,55.57,34.61,10.12,22.44,6.7,44.12-9.52,62.67-5.49,6.29-13.46,10.61-20.79,15-3.19,1.91-4.5,3.46-4.42,7.09C1164.67,270.47,1164.52,280.08,1164.52,290.33Zm3.55-90.27c0-14-10-24.27-23.38-24.24-13.74,0-23.77,10.46-23.71,24.64.06,13.4,10.09,23.43,23.49,23.51C1158.13,224,1168.09,214,1168.07,200.06Z"/><path d="M265,257.09v-113a10,10,0,0,1,2.31-.6c18.08,0,36.17,0,54.25.3a47.81,47.81,0,0,1,13.24,2.44c11.45,3.61,20.76,9.95,23.2,22.63s-1.94,22.81-13.35,30.17c1.48,1.15,2.61,2.1,3.81,2.94,18.46,13,17,38.82-3.28,48.75a58.85,58.85,0,0,1-22,5.83c-16.46.93-33,.43-49.52.52C271,257.1,268.29,257.09,265,257.09Zm36.91-28c5.18,0,10,.13,14.9,0,4.3-.14,7.07-2.47,7.43-6.84s-1.86-7.54-6.12-8c-5.34-.55-10.76-.13-16.21-.13Zm-.09-42.72c5.31,0,10.3.63,15-.26,2.42-.45,5.36-3.23,6.22-5.62,1.25-3.5-.9-6.8-4.82-7.33-5.32-.73-10.74-.72-16.4-1Z"/><path d="M875.52,200.88l-10.24-.54V173.18c9.11,2.8,10.74-3.18,13.39-9.78,5.48-13.68,22.5-22.49,39.85-21.67v26l-8.29,3.57.51,2.13c2.83,0,5.66.11,8.48,0,7-.32,10.33-3.52,10.87-10.6.24-3.13.12-6.29.14-9.43,0-2.94,0-5.87,0-9.35h34.22V173l10.82.57v25.52h-9.91c-3.67,17.62-1.11,24.28,10,26.61v31.63c-21.12,5.06-43-10.56-44.67-32.29-.65-8.36-.1-16.81-.1-26.15l-21.09,2V256.8h-34Z"/><path d="M1019.74,186.17h21.75V144h36.58V256.71h-36.2V213.94H1020v42.82H983.62v-113h36.12Z"/><path d="M704.21,193.37c-11.17,0-22.34.09-33.5-.14-1.21,0-2.81-1.74-3.52-3-6.77-12.53-20.22-16.73-32.53-10C624,186,620,200.77,626.23,211.54c6.44,11.18,21.76,15,32.91,8,2.73-1.73,5.53-4.21,6.88-7,1.93-4,4.35-5.15,8.62-5,9.23.36,18.49.14,27.73.18a4.6,4.6,0,0,1,1.12.28c3.23,20.51-21.83,47.1-47.36,50.25-34.85,4.3-66.32-19.44-69.19-52.19s22.38-62.48,55.06-64.51C674.39,139.52,703.49,163.49,704.21,193.37Z"/><path d="M834.77,179.78c.34-2.23.6-4,.91-6.05h25.68v83H834.68c-.34-1.58-.7-3.23-.91-4.24-29.75,12-53.43,7.67-64.93-25.32-6.12-17.56,1.41-37.25,15.32-47.46C799,168.82,816.52,168.69,834.77,179.78ZM827,215c-.14-8.19-5.76-13.7-13.75-13.47-7.83.22-13.26,5.84-13.13,13.55s5.83,13.66,13.19,13.72A13.42,13.42,0,0,0,827,215Z"/><path d="M508.33,225.81v31.5c-18.85,4.77-40.76-8.69-43.92-27.68-1.59-9.61-1.28-19.53-1.86-30l-10.3-.67V174.18c10.24-4.07,10.85-5,10.86-16.48V143.84h33.95v29.21l10.92.5V199l-9.68.48C494.23,215.23,497.2,223.29,508.33,225.81Z"/><path d="M554.53,232.47H582v24.25H515.1c-.6-10.88-2-21.2,6.36-30.52,7.66-8.57,13.78-18.53,21.33-28.91H515.16V173.68h67c-.33,9,3,18.1-3.91,26.64C570.2,210.22,563,220.83,554.53,232.47Z"/><path d="M75.78,163.62c18.43,15.4,36.23,30.24,54,45.15a5.49,5.49,0,0,1,1.67,3c4,22.81,8,45.64,12.13,69.39-2.12-.92-3.51-1.37-4.75-2.08C119,267.73,99.24,256.42,79.6,244.87c-2-1.16-4.26-3.9-4.29-5.93-.29-24.19-.18-48.38-.15-72.57A18.1,18.1,0,0,1,75.78,163.62Z"/><path d="M78,158.76l48-28c5.77-3.37,11.45-6.89,17.37-10,1.56-.81,4.28-1,5.72-.2,21.49,12.27,42.86,24.75,64.25,37.2.32.18.52.56,1.09,1.2-16.17,5.94-32.55,11-48.06,17.94-13.67,6.14-25.91,6.19-39.6,0C111.32,169.94,94.92,165,78,158.76Z"/><path d="M216.92,164.36c.45.66.83.95.83,1.25.14,24.74.28,49.48.27,74.21a5.09,5.09,0,0,1-2,3.82c-21.67,12.61-43.43,25.08-66.37,38.25.46-3.12.71-5.12,1.06-7.11,3.41-19.74,6.68-39.5,10.43-59.17a17.2,17.2,0,0,1,5.2-9.18c15.16-13.09,30.65-25.8,46-38.62C213.85,166.61,215.39,165.52,216.92,164.36Z"/><path d="M401.15,256.84H367.86v-113h33.29Z"/><path d="M744.86,256.84H711.09v-83h25.73c.34,2.18.69,4.43,1.17,7.58,8.72-6.12,17.51-10.53,28.43-9v33.25c-3.69,1-7.41,1.58-10.73,3.06-7,3.14-11,8.45-10.88,16.6C745,235.66,744.86,246.05,744.86,256.84Z"/><path d="M446.87,256.89h-33.2V173.73h33.2Z"/><path d="M430.28,166.23c-10.27,0-18.2-7.81-18-17.65.18-9.57,8.06-17,18.1-17,10.31,0,18.14,7.71,17.94,17.63C448.1,159,440.36,166.27,430.28,166.23Z"/></svg>