<svg id="Layer_1" data-name="Layer 1" xmlns="http://www.w3.org/2000/svg" viewBox="0 0 391.24 410.41"><path d="M296.72,152.13c.29,3.16.65,5.29.65,7.42,0,32.93-.05,65.87.12,98.8,0,4.54-1.3,7.29-5.38,9.6-28.86,16.31-57.57,32.88-86.35,49.32-1.62.92-3.52,1.37-6.63,2.54,1.24-10.14,2.25-19.05,3.44-27.93,3.1-23.16,6.14-46.33,9.58-69.44.5-3.36,2.28-7.43,4.83-9.45,24.43-19.34,49.15-38.32,73.81-57.36A63,63,0,0,1,296.72,152.13Z"/><path d="M94.64,151.39c3,2.15,5.06,3.48,7,5,23.88,18.41,47.81,36.76,71.52,55.4,2.69,2.11,5.41,5.66,5.88,8.87,4.56,30.82,8.64,61.71,12.81,92.59a56.63,56.63,0,0,1,0,6.4,61.08,61.08,0,0,1-6.6-2.73c-28.76-16.48-57.54-32.92-86.13-49.7C96.64,265.71,94,262,94,259.25c-.33-34.43-.21-68.87-.17-103.31A34.61,34.61,0,0,1,94.64,151.39Z"/><path d="M293.47,146.08c-27.32,11.22-53.83,21.23-79.51,33-13,6-23.86,5.67-36.73-.2-25.53-11.63-51.81-21.6-79-32.77,3.16-2.24,5.37-4.07,7.81-5.49,27.11-15.8,54.35-31.4,81.34-47.41,5.92-3.52,10.52-3.54,16.5,0,27.43,16.25,55.14,32,82.73,48C288.67,142.46,290.56,144,293.47,146.08Z"/></svg>