<svg id="Layer_1" data-name="Layer 1" xmlns="http://www.w3.org/2000/svg" viewBox="0 0 1280 410.41"><defs><style>.cls-1,.cls-2{fill:#fff;}.cls-2{font-size:116.24px;font-family:Provicali;letter-spacing:0em;}.cls-3{letter-spacing:0.02em;}.cls-4{letter-spacing:0em;}.cls-5{letter-spacing:0em;}.cls-6{letter-spacing:-0.01em;}.cls-7{letter-spacing:-0.03em;}.cls-8{letter-spacing:0.02em;}.cls-9{letter-spacing:0em;}</style></defs><path class="cls-1" d="M357.58,151c.29,3.16.65,5.29.65,7.42,0,32.93-.05,65.86.12,98.79,0,4.55-1.31,7.3-5.39,9.6-28.85,16.32-57.56,32.89-86.34,49.32-1.63.93-3.53,1.37-6.64,2.55,1.25-10.14,2.26-19,3.45-27.93,3.1-23.16,6.14-46.33,9.58-69.44.5-3.37,2.28-7.44,4.83-9.46,24.43-19.33,49.14-38.31,73.81-57.35A63,63,0,0,1,357.58,151Z"/><path class="cls-1" d="M155.5,150.23c3,2.15,5.06,3.47,7,5,23.88,18.41,47.81,36.76,71.52,55.39,2.69,2.12,5.41,5.66,5.88,8.87,4.55,30.83,8.64,61.72,12.81,92.6a56.63,56.63,0,0,1,0,6.4,61.08,61.08,0,0,1-6.6-2.73C217.35,299.23,188.56,282.79,160,266c-2.49-1.46-5.12-5.21-5.15-7.92-.33-34.43-.21-68.87-.17-103.31A34.32,34.32,0,0,1,155.5,150.23Z"/><path class="cls-1" d="M354.33,144.92c-27.32,11.22-53.83,21.23-79.51,33-13,6-23.86,5.67-36.74-.19-25.52-11.64-51.8-21.6-79-32.78,3.16-2.24,5.37-4.06,7.81-5.48,27.11-15.8,54.35-31.4,81.34-47.42,5.92-3.51,10.52-3.54,16.5,0,27.43,16.24,55.14,32,82.73,48C349.53,141.29,351.42,142.86,354.33,144.92Z"/><text class="cls-2" transform="translate(412.35 243.13)">B<tspan class="cls-3" x="73.71" y="0">l</tspan><tspan class="cls-4" x="103.95" y="0">i</tspan><tspan class="cls-3" x="131.98" y="0">tzC</tspan><tspan class="cls-5" x="330.53" y="0">r</tspan><tspan class="cls-6" x="381.37" y="0">a</tspan><tspan class="cls-7" x="448.67" y="0">f</tspan><tspan class="cls-8" x="496.04" y="0">t</tspan><tspan class="cls-9" x="548.98" y="0">H</tspan><tspan class="cls-8" x="623.15" y="0">Q</tspan></text></svg>