<svg id="Layer_1" data-name="Layer 1" xmlns="http://www.w3.org/2000/svg" viewBox="0 0 851.18 410.41"><defs><style>.cls-1{fill:#fff;}</style></defs><path class="cls-1" d="M769.58,268.75H742.31c0-7.38-.16-14.56.07-21.74.11-3.32-.84-4.85-4.19-5.91-22.61-7.18-35.63-28.83-31.82-52.44a46.64,46.64,0,0,1,46.46-39.09c20.51,0,36,9,44.5,27.72,8.1,18,5.37,35.33-7.62,50.19-4.41,5-10.78,8.5-16.66,12-2.55,1.52-3.6,2.77-3.53,5.67C769.7,252.85,769.58,260.54,769.58,268.75Zm2.84-72.29c0-11.18-8-19.44-18.72-19.41-11,0-19,8.37-19,19.73a18.45,18.45,0,0,0,18.8,18.82C764.46,215.67,772.44,207.59,772.42,196.46Z"/><path class="cls-1" d="M49.27,242.13V151.66a8.17,8.17,0,0,1,1.85-.48c14.48,0,29,0,43.44.23a38.22,38.22,0,0,1,10.61,2c9.16,2.89,16.62,8,18.57,18.12s-1.55,18.27-10.69,24.16c1.19.92,2.09,1.68,3,2.36,14.79,10.4,13.62,31.09-2.62,39a46.94,46.94,0,0,1-17.59,4.67c-13.19.74-26.43.35-39.66.42Zm29.56-22.45c4.15,0,8,.1,11.93,0,3.45-.11,5.66-2,5.95-5.47s-1.49-6.05-4.9-6.39c-4.27-.44-8.62-.11-13-.11Zm-.07-34.2c4.25,0,8.24.5,12-.21a7.94,7.94,0,0,0,5-4.51c1-2.8-.72-5.44-3.86-5.87-4.26-.58-8.6-.57-13.13-.83Z"/><path class="cls-1" d="M538.15,197.12l-8.2-.44V174.94c7.29,2.24,8.6-2.55,10.72-7.84,4.39-10.95,18-18,31.91-17.35v20.78L566,173.39c.13.57.27,1.13.41,1.7,2.26,0,4.53.09,6.79,0,5.61-.26,8.27-2.82,8.7-8.49.19-2.51.09-5,.11-7.55,0-2.35,0-4.7,0-7.49h27.41v23.28l8.66.46v20.43h-7.94c-2.94,14.12-.88,19.45,8,21.32v25.32c-16.91,4.06-34.41-8.45-35.77-25.86-.53-6.69-.09-13.45-.09-20.94l-16.88,1.61v44.73H538.15Z"/><path class="cls-1" d="M653.64,185.33h17.42V151.55h29.29v90.27h-29V207.58H653.83v34.28H624.72V151.35h28.92Z"/><path class="cls-1" d="M401,191.1c-8.94,0-17.88.08-26.82-.11-1,0-2.25-1.39-2.82-2.44-5.42-10-16.19-13.4-26.05-8-8.54,4.66-11.72,16.49-6.75,25.11a19.08,19.08,0,0,0,26.36,6.4,15,15,0,0,0,5.5-5.62c1.55-3.24,3.49-4.13,6.91-4,7.39.28,14.8.11,22.2.14a3.7,3.7,0,0,1,.9.22C403,219.23,382.9,240.52,362.47,243c-27.91,3.45-53.12-15.56-55.41-41.79s17.92-50,44.09-51.66C377.09,148,400.39,167.17,401,191.1Z"/><path class="cls-1" d="M505.52,180.22c.27-1.79.48-3.17.73-4.85h20.56v66.48H505.44c-.27-1.26-.55-2.58-.73-3.4-23.81,9.62-42.78,6.15-52-20.28-4.9-14.06,1.13-29.82,12.27-38C476.88,171.44,490.9,171.34,505.52,180.22Zm-6.2,28.17c-.11-6.57-4.62-11-11-10.79s-10.62,4.67-10.52,10.85,4.67,10.94,10.57,11A10.75,10.75,0,0,0,499.32,208.39Z"/><path class="cls-1" d="M244.11,217.08V242.3c-15.1,3.83-32.64-7-35.17-22.16-1.28-7.69-1-15.64-1.5-24l-8.24-.53V175.74c8.2-3.26,8.69-4,8.69-13.2,0-3.59,0-7.18,0-11.1h27.19v23.39l8.75.4v20.4l-7.75.38C232.82,208.61,235.2,215.06,244.11,217.08Z"/><path class="cls-1" d="M281.1,222.41h22v19.42H249.53c-.48-8.71-1.58-17,5.09-24.43,6.14-6.87,11-14.84,17.08-23.16H249.58V175.33H303.2c-.26,7.22,2.42,14.5-3.12,21.34C293.65,204.6,287.92,213.09,281.1,222.41Z"/><path class="cls-1" d="M158.27,241.93H131.62v-90.5h26.65Z"/><path class="cls-1" d="M433.51,241.93h-27V175.46h20.6l.94,6.06c7-4.9,14-8.42,22.76-7.23v26.62c-2.95.82-5.93,1.27-8.59,2.46-5.63,2.51-8.84,6.76-8.71,13.29C433.63,225,433.51,233.29,433.51,241.93Z"/><path class="cls-1" d="M194.89,242H168.3v-66.6h26.59Z"/><path class="cls-1" d="M181.6,169.37c-8.22,0-14.57-6.25-14.43-14.13.14-7.67,6.45-13.59,14.49-13.58,8.25,0,14.53,6.17,14.37,14.12C195.88,163.56,189.67,169.4,181.6,169.37Z"/></svg>